<?xml version="1.0" encoding="UTF-8"?>
<svg xmlns="http://www.w3.org/2000/svg" xmlns:xlink="http://www.w3.org/1999/xlink"   viewBox="0 0 192 192">
<path fill-rule="nonzero" fill="rgb(0%, 0%, 0%)" fill-opacity="1" d="M 170.023438 151.726562 C 165.222656 155.175781 151.949219 159.75 95.921875 159.75 C 35.921875 159.75 27.070312 154.5 24.222656 152.773438 C 9.371094 143.847656 7.648438 107.847656 7.421875 97.046875 C 7.570312 88.871094 8.996094 48.445312 24.222656 39.371094 C 27.074219 37.644531 35.996094 32.394531 95.921875 32.394531 C 151.871094 32.394531 165.222656 36.96875 170.023438 40.417969 C 183.375 50.019531 184.5 86.167969 184.5 96.96875 C 184.5 110.320312 183 142.34375 170.023438 151.71875 Z M 163.574219 49.277344 C 161.625 47.851562 150.523438 43.351562 95.925781 43.351562 C 43.125 43.351562 32.027344 47.476562 29.925781 48.75 C 24.675781 51.898438 18.976562 70.949219 18.527344 96.976562 C 18.976562 123.078125 24.601562 140.027344 29.925781 143.25 C 32.027344 144.523438 43.125 148.648438 95.925781 148.648438 C 150.601562 148.648438 161.625 144.148438 163.574219 142.722656 C 168.300781 139.347656 173.398438 123.523438 173.472656 96.898438 C 173.398438 70.648438 168.296875 52.722656 163.574219 49.273438 Z M 82.273438 131.628906 C 81.375 132.152344 80.398438 132.453125 79.421875 132.453125 C 78.445312 132.453125 77.546875 132.226562 76.722656 131.777344 C 74.996094 130.800781 73.871094 128.925781 73.871094 126.976562 L 73.871094 65.851562 C 73.871094 63.902344 74.921875 62.027344 76.722656 61.050781 C 78.449219 60.074219 80.621094 60.074219 82.273438 61.125 L 132 91.648438 C 133.648438 92.625 134.699219 94.421875 134.699219 96.375 C 134.699219 98.324219 133.722656 100.125 132 101.101562 L 82.273438 131.625 Z M 84.972656 75.679688 L 84.972656 117.15625 L 118.496094 96.457031 L 84.972656 75.683594 Z M 84.972656 75.679688 "/>
<path fill="none" stroke-width="20" stroke-linecap="butt" stroke-linejoin="miter" stroke="rgb(0%, 0%, 0%)" stroke-opacity="1" stroke-miterlimit="4" d="M 12.5 38.901042 L 247.5 206.901042 " transform="matrix(0.75, 0, 0, 0.75, 0, 0)"/>
<path fill="none" stroke-width="20" stroke-linecap="butt" stroke-linejoin="miter" stroke="rgb(0%, 0%, 0%)" stroke-opacity="1" stroke-miterlimit="4" d="M 244.5 33.901042 L 11.5 208.901042 " transform="matrix(0.75, 0, 0, 0.75, 0, 0)"/>
</svg>
